<svg width="17" height="16" viewBox="0 0 17 16" fill="none" xmlns="http://www.w3.org/2000/svg">
<path fill-rule="evenodd" clip-rule="evenodd" d="M6.55396 2.01218C5.49309 2.01218 4.47567 2.43361 3.72553 3.18375C2.97538 3.9339 2.55396 4.95131 2.55396 6.01218C2.55396 7.07305 2.97538 8.09046 3.72553 8.84061C4.47567 9.59075 5.49309 10.0122 6.55396 10.0122C7.61482 10.0122 8.63224 9.59075 9.38238 8.84061C10.1325 8.09046 10.554 7.07305 10.554 6.01218C10.554 4.95131 10.1325 3.9339 9.38238 3.18375C8.63224 2.43361 7.61482 2.01218 6.55396 2.01218ZM0.553955 6.01218C0.553835 5.06788 0.776598 4.13689 1.20413 3.29492C1.63166 2.45295 2.25188 1.72378 3.01435 1.16671C3.77682 0.609633 4.66002 0.240392 5.5921 0.0890129C6.52418 -0.0623662 7.47884 0.00839108 8.37842 0.29553C9.278 0.582669 10.0971 1.07808 10.7691 1.74148C11.4411 2.40487 11.9471 3.21751 12.2458 4.11331C12.5445 5.00911 12.6276 5.96277 12.4883 6.89673C12.3489 7.83069 11.9911 8.71858 11.444 9.48818L16.261 14.3052C16.4431 14.4938 16.5439 14.7464 16.5416 15.0086C16.5394 15.2708 16.4342 15.5216 16.2488 15.707C16.0634 15.8924 15.8126 15.9976 15.5504 15.9999C15.2882 16.0021 15.0356 15.9013 14.847 15.7192L10.031 10.9032C9.13332 11.5415 8.0773 11.9203 6.97863 11.9983C5.87996 12.0763 4.78103 11.8503 3.80226 11.3452C2.82348 10.84 2.00264 10.0752 1.42968 9.13453C0.856715 8.19386 0.553741 7.11361 0.553955 6.01218Z" fill="white"/>
</svg>
