<svg width="23" height="23" viewBox="0 0 23 23" fill="none" xmlns="http://www.w3.org/2000/svg">
<path d="M11.7583 0.597015C5.74415 0.597015 0.867676 5.47349 0.867676 11.4877C0.867676 17.5018 5.74415 22.3783 11.7583 22.3783C17.7725 22.3783 22.6489 17.5018 22.6489 11.4877C22.6489 5.47349 17.7725 0.597015 11.7583 0.597015ZM11.7583 20.5308C6.76515 20.5308 2.71519 16.4808 2.71519 11.4877C2.71519 6.49449 6.76515 2.44453 11.7583 2.44453C16.7515 2.44453 20.8014 6.49449 20.8014 11.4877C20.8014 16.4808 16.7515 20.5308 11.7583 20.5308Z" fill="#B13737"/>
<path d="M10.5916 7.20918C10.5916 7.51865 10.7145 7.81544 10.9333 8.03427C11.1521 8.2531 11.4489 8.37604 11.7584 8.37604C12.0679 8.37604 12.3647 8.2531 12.5835 8.03427C12.8023 7.81544 12.9253 7.51865 12.9253 7.20918C12.9253 6.89971 12.8023 6.60292 12.5835 6.38409C12.3647 6.16526 12.0679 6.04233 11.7584 6.04233C11.4489 6.04233 11.1521 6.16526 10.9333 6.38409C10.7145 6.60292 10.5916 6.89971 10.5916 7.20918ZM12.3418 9.93184H11.175C11.068 9.93184 10.9805 10.0194 10.9805 10.1263V16.7385C10.9805 16.8454 11.068 16.933 11.175 16.933H12.3418C12.4488 16.933 12.5363 16.8454 12.5363 16.7385V10.1263C12.5363 10.0194 12.4488 9.93184 12.3418 9.93184Z" fill="#B13737"/>
</svg>
