<svg width="4" height="17" viewBox="0 0 4 17" fill="none" xmlns="http://www.w3.org/2000/svg">
<path d="M3.86652 2.01752C3.86652 2.30137 3.78969 2.58392 3.63605 2.86517C3.48501 3.14903 3.26756 3.36517 2.9837 3.51361C2.70245 3.66465 2.42381 3.74017 2.14777 3.74017C1.6712 3.74017 1.26495 3.5722 0.929016 3.23627C0.593078 2.90033 0.42511 2.49408 0.42511 2.01752C0.42511 1.54356 0.593079 1.13861 0.929016 0.802673C1.26495 0.466736 1.6712 0.298767 2.14777 0.298767C2.42902 0.298767 2.70766 0.370382 2.9837 0.513611C3.26235 0.659444 3.4785 0.871684 3.63214 1.15033C3.78839 1.43158 3.86652 1.72064 3.86652 2.01752ZM3.86652 8.41345C3.86652 8.69731 3.78969 8.97986 3.63605 9.26111C3.48501 9.54496 3.26756 9.76111 2.9837 9.90955C2.70245 10.0606 2.42381 10.1361 2.14777 10.1361C1.6712 10.1361 1.26495 9.96814 0.929016 9.6322C0.593078 9.29627 0.425109 8.89002 0.425109 8.41345C0.425109 7.9395 0.593078 7.53455 0.929016 7.19861C1.26495 6.86267 1.6712 6.6947 2.14777 6.6947C2.42902 6.6947 2.70766 6.76632 2.9837 6.90955C3.26235 7.05538 3.47849 7.26762 3.63214 7.54627C3.78839 7.82752 3.86652 8.11658 3.86652 8.41345ZM3.86652 14.8094C3.86652 15.0932 3.78969 15.3758 3.63605 15.657C3.485 15.9409 3.26756 16.157 2.9837 16.3055C2.70245 16.4565 2.42381 16.532 2.14777 16.532C1.6712 16.532 1.26495 16.3641 0.929015 16.0281C0.593078 15.6922 0.425109 15.286 0.425109 14.8094C0.425109 14.3354 0.593078 13.9305 0.929016 13.5945C1.26495 13.2586 1.6712 13.0906 2.14777 13.0906C2.42902 13.0906 2.70766 13.1623 2.9837 13.3055C3.26235 13.4513 3.47849 13.6636 3.63214 13.9422C3.78839 14.2235 3.86652 14.5125 3.86652 14.8094Z" fill="#A8A8A8"/>
</svg>
