<svg width="23" height="13" viewBox="0 0 23 13" fill="none" xmlns="http://www.w3.org/2000/svg">
<path fill-rule="evenodd" clip-rule="evenodd" d="M22.3919 12.1481C22.3123 12.2279 22.2177 12.2912 22.1136 12.3344C22.0095 12.3776 21.8979 12.3998 21.7852 12.3998C21.6724 12.3998 21.5608 12.3776 21.4567 12.3344C21.3526 12.2912 21.2581 12.2279 21.1785 12.1481L11.5021 2.46999L1.82569 12.1481C1.66478 12.309 1.44654 12.3994 1.21899 12.3994C0.991429 12.3994 0.773192 12.309 0.612284 12.1481C0.451376 11.9872 0.360979 11.7689 0.360979 11.5414C0.360979 11.3138 0.451376 11.0956 0.612284 10.9347L10.8954 0.651595C10.975 0.571792 11.0695 0.508478 11.1736 0.465278C11.2778 0.422078 11.3894 0.399841 11.5021 0.399841C11.6148 0.399841 11.7264 0.422078 11.8305 0.465278C11.9346 0.508478 12.0292 0.571792 12.1088 0.651595L22.3919 10.9347C22.4717 11.0143 22.535 11.1088 22.5782 11.213C22.6214 11.3171 22.6436 11.4287 22.6436 11.5414C22.6436 11.6541 22.6214 11.7657 22.5782 11.8698C22.535 11.9739 22.4717 12.0685 22.3919 12.1481Z" fill="white"/>
</svg>
